<svg width="144" height="34" viewBox="0 0 144 34" fill="none" xmlns="http://www.w3.org/2000/svg">
<path d="M58.32 13.288C57.936 12.584 57.408 12.048 56.736 11.68C56.064 11.312 55.28 11.128 54.384 11.128C53.392 11.128 52.512 11.352 51.744 11.8C50.976 12.248 50.376 12.888 49.944 13.72C49.512 14.552 49.296 15.512 49.296 16.6C49.296 17.72 49.512 18.696 49.944 19.528C50.392 20.36 51.008 21 51.792 21.448C52.576 21.896 53.488 22.12 54.528 22.12C55.808 22.12 56.856 21.784 57.672 21.112C58.488 20.424 59.024 19.472 59.28 18.256H53.52V15.688H62.592V18.616C62.368 19.784 61.888 20.864 61.152 21.856C60.416 22.848 59.464 23.648 58.296 24.256C57.144 24.848 55.848 25.144 54.408 25.144C52.792 25.144 51.328 24.784 50.016 24.064C48.72 23.328 47.696 22.312 46.944 21.016C46.208 19.72 45.84 18.248 45.84 16.6C45.84 14.952 46.208 13.48 46.944 12.184C47.696 10.872 48.72 9.856 50.016 9.136C51.328 8.4 52.784 8.032 54.384 8.032C56.272 8.032 57.912 8.496 59.304 9.424C60.696 10.336 61.656 11.624 62.184 13.288H58.32ZM77.6779 18.064C77.6779 18.544 77.6459 18.976 77.5819 19.36H67.8619C67.9419 20.32 68.2779 21.072 68.8699 21.616C69.4619 22.16 70.1899 22.432 71.0539 22.432C72.3019 22.432 73.1899 21.896 73.7179 20.824H77.3419C76.9579 22.104 76.2219 23.16 75.1339 23.992C74.0459 24.808 72.7099 25.216 71.1259 25.216C69.8459 25.216 68.6939 24.936 67.6699 24.376C66.6619 23.8 65.8699 22.992 65.2939 21.952C64.7339 20.912 64.4539 19.712 64.4539 18.352C64.4539 16.976 64.7339 15.768 65.2939 14.728C65.8539 13.688 66.6379 12.888 67.6459 12.328C68.6539 11.768 69.8139 11.488 71.1259 11.488C72.3899 11.488 73.5179 11.76 74.5099 12.304C75.5179 12.848 76.2939 13.624 76.8379 14.632C77.3979 15.624 77.6779 16.768 77.6779 18.064ZM74.1979 17.104C74.1819 16.24 73.8699 15.552 73.2619 15.04C72.6539 14.512 71.9099 14.248 71.0299 14.248C70.1979 14.248 69.4939 14.504 68.9179 15.016C68.3579 15.512 68.0139 16.208 67.8859 17.104H74.1979ZM87.7384 11.512C89.3224 11.512 90.6024 12.016 91.5784 13.024C92.5544 14.016 93.0424 15.408 93.0424 17.2V25H89.6824V17.656C89.6824 16.6 89.4184 15.792 88.8904 15.232C88.3624 14.656 87.6424 14.368 86.7304 14.368C85.8024 14.368 85.0664 14.656 84.5224 15.232C83.9944 15.792 83.7304 16.6 83.7304 17.656V25H80.3704V11.704H83.7304V13.36C84.1784 12.784 84.7464 12.336 85.4344 12.016C86.1384 11.68 86.9064 11.512 87.7384 11.512ZM108.838 18.064C108.838 18.544 108.806 18.976 108.742 19.36H99.0216C99.1016 20.32 99.4376 21.072 100.03 21.616C100.622 22.16 101.35 22.432 102.214 22.432C103.462 22.432 104.35 21.896 104.878 20.824H108.502C108.118 22.104 107.382 23.16 106.294 23.992C105.206 24.808 103.87 25.216 102.286 25.216C101.006 25.216 99.8536 24.936 98.8296 24.376C97.8216 23.8 97.0296 22.992 96.4536 21.952C95.8936 20.912 95.6136 19.712 95.6136 18.352C95.6136 16.976 95.8936 15.768 96.4536 14.728C97.0136 13.688 97.7976 12.888 98.8056 12.328C99.8136 11.768 100.974 11.488 102.286 11.488C103.55 11.488 104.678 11.76 105.67 12.304C106.678 12.848 107.454 13.624 107.998 14.632C108.558 15.624 108.838 16.768 108.838 18.064ZM105.358 17.104C105.342 16.24 105.03 15.552 104.422 15.04C103.814 14.512 103.07 14.248 102.19 14.248C101.358 14.248 100.654 14.504 100.078 15.016C99.5176 15.512 99.1736 16.208 99.0456 17.104H105.358ZM116.618 25.216C115.53 25.216 114.554 25.024 113.69 24.64C112.826 24.24 112.138 23.704 111.626 23.032C111.13 22.36 110.858 21.616 110.81 20.8H114.194C114.258 21.312 114.506 21.736 114.938 22.072C115.386 22.408 115.938 22.576 116.594 22.576C117.234 22.576 117.73 22.448 118.082 22.192C118.45 21.936 118.634 21.608 118.634 21.208C118.634 20.776 118.41 20.456 117.962 20.248C117.53 20.024 116.834 19.784 115.874 19.528C114.882 19.288 114.066 19.04 113.426 18.784C112.802 18.528 112.258 18.136 111.794 17.608C111.346 17.08 111.122 16.368 111.122 15.472C111.122 14.736 111.33 14.064 111.746 13.456C112.178 12.848 112.786 12.368 113.57 12.016C114.37 11.664 115.306 11.488 116.378 11.488C117.962 11.488 119.226 11.888 120.17 12.688C121.114 13.472 121.634 14.536 121.73 15.88H118.514C118.466 15.352 118.242 14.936 117.842 14.632C117.458 14.312 116.938 14.152 116.282 14.152C115.674 14.152 115.202 14.264 114.866 14.488C114.546 14.712 114.386 15.024 114.386 15.424C114.386 15.872 114.61 16.216 115.058 16.456C115.506 16.68 116.202 16.912 117.146 17.152C118.106 17.392 118.898 17.64 119.522 17.896C120.146 18.152 120.682 18.552 121.13 19.096C121.594 19.624 121.834 20.328 121.85 21.208C121.85 21.976 121.634 22.664 121.202 23.272C120.786 23.88 120.178 24.36 119.378 24.712C118.594 25.048 117.674 25.216 116.618 25.216ZM126.552 10.12C125.96 10.12 125.464 9.936 125.064 9.568C124.68 9.184 124.488 8.712 124.488 8.152C124.488 7.592 124.68 7.128 125.064 6.76C125.464 6.376 125.96 6.184 126.552 6.184C127.144 6.184 127.632 6.376 128.016 6.76C128.416 7.128 128.616 7.592 128.616 8.152C128.616 8.712 128.416 9.184 128.016 9.568C127.632 9.936 127.144 10.12 126.552 10.12ZM128.208 11.704V25H124.848V11.704H128.208ZM136.856 25.216C135.768 25.216 134.792 25.024 133.928 24.64C133.064 24.24 132.376 23.704 131.864 23.032C131.368 22.36 131.096 21.616 131.048 20.8H134.432C134.496 21.312 134.744 21.736 135.176 22.072C135.624 22.408 136.176 22.576 136.832 22.576C137.472 22.576 137.968 22.448 138.32 22.192C138.688 21.936 138.872 21.608 138.872 21.208C138.872 20.776 138.648 20.456 138.2 20.248C137.768 20.024 137.072 19.784 136.112 19.528C135.12 19.288 134.304 19.04 133.664 18.784C133.04 18.528 132.496 18.136 132.032 17.608C131.584 17.08 131.36 16.368 131.36 15.472C131.36 14.736 131.568 14.064 131.984 13.456C132.416 12.848 133.024 12.368 133.808 12.016C134.608 11.664 135.544 11.488 136.616 11.488C138.2 11.488 139.464 11.888 140.408 12.688C141.352 13.472 141.872 14.536 141.968 15.88H138.752C138.704 15.352 138.48 14.936 138.08 14.632C137.696 14.312 137.176 14.152 136.52 14.152C135.912 14.152 135.44 14.264 135.104 14.488C134.784 14.712 134.624 15.024 134.624 15.424C134.624 15.872 134.848 16.216 135.296 16.456C135.744 16.68 136.44 16.912 137.384 17.152C138.344 17.392 139.136 17.64 139.76 17.896C140.384 18.152 140.92 18.552 141.368 19.096C141.832 19.624 142.072 20.328 142.088 21.208C142.088 21.976 141.872 22.664 141.44 23.272C141.024 23.88 140.416 24.36 139.616 24.712C138.832 25.048 137.912 25.216 136.856 25.216Z" fill="black"/>
<path d="M58.32 13.288C57.936 12.584 57.408 12.048 56.736 11.68C56.064 11.312 55.28 11.128 54.384 11.128C53.392 11.128 52.512 11.352 51.744 11.8C50.976 12.248 50.376 12.888 49.944 13.72C49.512 14.552 49.296 15.512 49.296 16.6C49.296 17.72 49.512 18.696 49.944 19.528C50.392 20.36 51.008 21 51.792 21.448C52.576 21.896 53.488 22.12 54.528 22.12C55.808 22.12 56.856 21.784 57.672 21.112C58.488 20.424 59.024 19.472 59.28 18.256H53.52V15.688H62.592V18.616C62.368 19.784 61.888 20.864 61.152 21.856C60.416 22.848 59.464 23.648 58.296 24.256C57.144 24.848 55.848 25.144 54.408 25.144C52.792 25.144 51.328 24.784 50.016 24.064C48.72 23.328 47.696 22.312 46.944 21.016C46.208 19.72 45.84 18.248 45.84 16.6C45.84 14.952 46.208 13.48 46.944 12.184C47.696 10.872 48.72 9.856 50.016 9.136C51.328 8.4 52.784 8.032 54.384 8.032C56.272 8.032 57.912 8.496 59.304 9.424C60.696 10.336 61.656 11.624 62.184 13.288H58.32ZM77.6779 18.064C77.6779 18.544 77.6459 18.976 77.5819 19.36H67.8619C67.9419 20.32 68.2779 21.072 68.8699 21.616C69.4619 22.16 70.1899 22.432 71.0539 22.432C72.3019 22.432 73.1899 21.896 73.7179 20.824H77.3419C76.9579 22.104 76.2219 23.16 75.1339 23.992C74.0459 24.808 72.7099 25.216 71.1259 25.216C69.8459 25.216 68.6939 24.936 67.6699 24.376C66.6619 23.8 65.8699 22.992 65.2939 21.952C64.7339 20.912 64.4539 19.712 64.4539 18.352C64.4539 16.976 64.7339 15.768 65.2939 14.728C65.8539 13.688 66.6379 12.888 67.6459 12.328C68.6539 11.768 69.8139 11.488 71.1259 11.488C72.3899 11.488 73.5179 11.76 74.5099 12.304C75.5179 12.848 76.2939 13.624 76.8379 14.632C77.3979 15.624 77.6779 16.768 77.6779 18.064ZM74.1979 17.104C74.1819 16.24 73.8699 15.552 73.2619 15.04C72.6539 14.512 71.9099 14.248 71.0299 14.248C70.1979 14.248 69.4939 14.504 68.9179 15.016C68.3579 15.512 68.0139 16.208 67.8859 17.104H74.1979ZM87.7384 11.512C89.3224 11.512 90.6024 12.016 91.5784 13.024C92.5544 14.016 93.0424 15.408 93.0424 17.2V25H89.6824V17.656C89.6824 16.6 89.4184 15.792 88.8904 15.232C88.3624 14.656 87.6424 14.368 86.7304 14.368C85.8024 14.368 85.0664 14.656 84.5224 15.232C83.9944 15.792 83.7304 16.6 83.7304 17.656V25H80.3704V11.704H83.7304V13.36C84.1784 12.784 84.7464 12.336 85.4344 12.016C86.1384 11.68 86.9064 11.512 87.7384 11.512ZM108.838 18.064C108.838 18.544 108.806 18.976 108.742 19.36H99.0216C99.1016 20.32 99.4376 21.072 100.03 21.616C100.622 22.16 101.35 22.432 102.214 22.432C103.462 22.432 104.35 21.896 104.878 20.824H108.502C108.118 22.104 107.382 23.16 106.294 23.992C105.206 24.808 103.87 25.216 102.286 25.216C101.006 25.216 99.8536 24.936 98.8296 24.376C97.8216 23.8 97.0296 22.992 96.4536 21.952C95.8936 20.912 95.6136 19.712 95.6136 18.352C95.6136 16.976 95.8936 15.768 96.4536 14.728C97.0136 13.688 97.7976 12.888 98.8056 12.328C99.8136 11.768 100.974 11.488 102.286 11.488C103.55 11.488 104.678 11.76 105.67 12.304C106.678 12.848 107.454 13.624 107.998 14.632C108.558 15.624 108.838 16.768 108.838 18.064ZM105.358 17.104C105.342 16.24 105.03 15.552 104.422 15.04C103.814 14.512 103.07 14.248 102.19 14.248C101.358 14.248 100.654 14.504 100.078 15.016C99.5176 15.512 99.1736 16.208 99.0456 17.104H105.358ZM116.618 25.216C115.53 25.216 114.554 25.024 113.69 24.64C112.826 24.24 112.138 23.704 111.626 23.032C111.13 22.36 110.858 21.616 110.81 20.8H114.194C114.258 21.312 114.506 21.736 114.938 22.072C115.386 22.408 115.938 22.576 116.594 22.576C117.234 22.576 117.73 22.448 118.082 22.192C118.45 21.936 118.634 21.608 118.634 21.208C118.634 20.776 118.41 20.456 117.962 20.248C117.53 20.024 116.834 19.784 115.874 19.528C114.882 19.288 114.066 19.04 113.426 18.784C112.802 18.528 112.258 18.136 111.794 17.608C111.346 17.08 111.122 16.368 111.122 15.472C111.122 14.736 111.33 14.064 111.746 13.456C112.178 12.848 112.786 12.368 113.57 12.016C114.37 11.664 115.306 11.488 116.378 11.488C117.962 11.488 119.226 11.888 120.17 12.688C121.114 13.472 121.634 14.536 121.73 15.88H118.514C118.466 15.352 118.242 14.936 117.842 14.632C117.458 14.312 116.938 14.152 116.282 14.152C115.674 14.152 115.202 14.264 114.866 14.488C114.546 14.712 114.386 15.024 114.386 15.424C114.386 15.872 114.61 16.216 115.058 16.456C115.506 16.68 116.202 16.912 117.146 17.152C118.106 17.392 118.898 17.64 119.522 17.896C120.146 18.152 120.682 18.552 121.13 19.096C121.594 19.624 121.834 20.328 121.85 21.208C121.85 21.976 121.634 22.664 121.202 23.272C120.786 23.88 120.178 24.36 119.378 24.712C118.594 25.048 117.674 25.216 116.618 25.216ZM126.552 10.12C125.96 10.12 125.464 9.936 125.064 9.568C124.68 9.184 124.488 8.712 124.488 8.152C124.488 7.592 124.68 7.128 125.064 6.76C125.464 6.376 125.96 6.184 126.552 6.184C127.144 6.184 127.632 6.376 128.016 6.76C128.416 7.128 128.616 7.592 128.616 8.152C128.616 8.712 128.416 9.184 128.016 9.568C127.632 9.936 127.144 10.12 126.552 10.12ZM128.208 11.704V25H124.848V11.704H128.208ZM136.856 25.216C135.768 25.216 134.792 25.024 133.928 24.64C133.064 24.24 132.376 23.704 131.864 23.032C131.368 22.36 131.096 21.616 131.048 20.8H134.432C134.496 21.312 134.744 21.736 135.176 22.072C135.624 22.408 136.176 22.576 136.832 22.576C137.472 22.576 137.968 22.448 138.32 22.192C138.688 21.936 138.872 21.608 138.872 21.208C138.872 20.776 138.648 20.456 138.2 20.248C137.768 20.024 137.072 19.784 136.112 19.528C135.12 19.288 134.304 19.04 133.664 18.784C133.04 18.528 132.496 18.136 132.032 17.608C131.584 17.08 131.36 16.368 131.36 15.472C131.36 14.736 131.568 14.064 131.984 13.456C132.416 12.848 133.024 12.368 133.808 12.016C134.608 11.664 135.544 11.488 136.616 11.488C138.2 11.488 139.464 11.888 140.408 12.688C141.352 13.472 141.872 14.536 141.968 15.88H138.752C138.704 15.352 138.48 14.936 138.08 14.632C137.696 14.312 137.176 14.152 136.52 14.152C135.912 14.152 135.44 14.264 135.104 14.488C134.784 14.712 134.624 15.024 134.624 15.424C134.624 15.872 134.848 16.216 135.296 16.456C135.744 16.68 136.44 16.912 137.384 17.152C138.344 17.392 139.136 17.64 139.76 17.896C140.384 18.152 140.92 18.552 141.368 19.096C141.832 19.624 142.072 20.328 142.088 21.208C142.088 21.976 141.872 22.664 141.44 23.272C141.024 23.88 140.416 24.36 139.616 24.712C138.832 25.048 137.912 25.216 136.856 25.216Z" fill="url(#paint0_linear_372_10339)"/>
<circle cx="15" cy="18" r="11" stroke="url(#paint1_linear_372_10339)" stroke-width="4"/>
<circle cx="23" cy="10" r="6" fill="black"/>
<circle cx="23" cy="10" r="6" fill="url(#paint2_linear_372_10339)"/>
<circle cx="6" cy="10" r="6" fill="black"/>
<circle cx="6" cy="10" r="6" fill="url(#paint3_linear_372_10339)"/>
<circle cx="15" cy="28" r="6" fill="black"/>
<circle cx="15" cy="28" r="6" fill="url(#paint4_linear_372_10339)"/>
<defs>
<linearGradient id="paint0_linear_372_10339" x1="48.2543" y1="16.5" x2="143.228" y2="18.422" gradientUnits="userSpaceOnUse">
<stop stop-color="#3661EB"/>
<stop offset="1" stop-color="#3661EB"/>
</linearGradient>
<linearGradient id="paint1_linear_372_10339" x1="2.85467" y1="18" x2="27.8064" y2="18.1683" gradientUnits="userSpaceOnUse">
<stop stop-color="#3661EB"/>
<stop offset="1" stop-color="#3661EB"/>
</linearGradient>
<linearGradient id="paint2_linear_372_10339" x1="17.3945" y1="10" x2="28.9107" y2="10.0777" gradientUnits="userSpaceOnUse">
<stop stop-color="#3661EB"/>
<stop offset="1" stop-color="#3661EB"/>
</linearGradient>
<linearGradient id="paint3_linear_372_10339" x1="0.394464" y1="10" x2="11.9107" y2="10.0777" gradientUnits="userSpaceOnUse">
<stop stop-color="#3661EB"/>
<stop offset="1" stop-color="#3661EB"/>
</linearGradient>
<linearGradient id="paint4_linear_372_10339" x1="9.39446" y1="28" x2="20.9107" y2="28.0777" gradientUnits="userSpaceOnUse">
<stop stop-color="#3661EB"/>
<stop offset="1" stop-color="#3661EB"/>
</linearGradient>
</defs>
</svg>
