<svg width="245" height="58" viewBox="0 0 245 58" fill="none" xmlns="http://www.w3.org/2000/svg">
<path d="M99.488 22.0207C98.8329 20.8198 97.9322 19.9054 96.7859 19.2776C95.6395 18.6499 94.3021 18.336 92.7736 18.336C91.0814 18.336 89.5802 18.7181 88.2701 19.4824C86.96 20.2466 85.9364 21.3384 85.1995 22.7576C84.4626 24.1769 84.0941 25.8146 84.0941 27.6706C84.0941 29.5812 84.4626 31.2461 85.1995 32.6654C85.9637 34.0847 87.0146 35.1765 88.352 35.9407C89.6894 36.7049 91.2452 37.0871 93.0193 37.0871C95.2028 37.0871 96.9906 36.5139 98.3826 35.3675C99.7746 34.1939 100.689 32.5699 101.126 30.4955H91.2997V26.1148H106.776V31.1096C106.393 33.1021 105.575 34.9445 104.319 36.6367C103.064 38.3289 101.44 39.6936 99.447 40.7308C97.4819 41.7407 95.271 42.2456 92.8146 42.2456C90.0579 42.2456 87.5604 41.6315 85.3223 40.4033C83.1115 39.1478 81.3647 37.4146 80.0819 35.2038C78.8263 32.9929 78.1986 30.4819 78.1986 27.6706C78.1986 24.8593 78.8263 22.3482 80.0819 20.1374C81.3647 17.8993 83.1115 16.1661 85.3223 14.9379C87.5604 13.6824 90.0442 13.0546 92.7736 13.0546C95.9943 13.0546 98.792 13.8461 101.167 15.4292C103.541 16.9849 105.179 19.1821 106.08 22.0207H99.488ZM132.51 30.168C132.51 30.9868 132.456 31.7238 132.346 32.3788H115.765C115.902 34.0165 116.475 35.2993 117.485 36.2273C118.495 37.1553 119.737 37.6193 121.21 37.6193C123.339 37.6193 124.854 36.7049 125.755 34.8762H131.937C131.282 37.0598 130.026 38.8612 128.17 40.2805C126.314 41.6725 124.035 42.3685 121.333 42.3685C119.15 42.3685 117.185 41.8908 115.438 40.9355C113.718 39.9529 112.367 38.5746 111.385 36.8005C110.429 35.0264 109.952 32.9793 109.952 30.6593C109.952 28.312 110.429 26.2513 111.385 24.4772C112.34 22.7031 113.677 21.3384 115.397 20.3831C117.116 19.4278 119.095 18.9501 121.333 18.9501C123.49 18.9501 125.414 19.4141 127.106 20.3421C128.826 21.2701 130.149 22.5939 131.077 24.3134C132.033 26.0056 132.51 27.9572 132.51 30.168ZM126.574 28.5304C126.546 27.0565 126.014 25.8828 124.977 25.0094C123.94 24.1087 122.671 23.6584 121.17 23.6584C119.75 23.6584 118.549 24.0951 117.567 24.9685C116.611 25.8146 116.025 27.0019 115.806 28.5304H126.574ZM149.672 18.9911C152.374 18.9911 154.558 19.8508 156.223 21.5704C157.888 23.2626 158.72 25.6372 158.72 28.6941V42H152.989V29.472C152.989 27.6706 152.538 26.2922 151.637 25.3369C150.737 24.3544 149.509 23.8631 147.953 23.8631C146.37 23.8631 145.114 24.3544 144.186 25.3369C143.285 26.2922 142.835 27.6706 142.835 29.472V42H137.103V19.3186H142.835V22.1435C143.599 21.1609 144.568 20.3967 145.742 19.8508C146.943 19.2776 148.253 18.9911 149.672 18.9911ZM185.665 30.168C185.665 30.9868 185.61 31.7238 185.501 32.3788H168.92C169.057 34.0165 169.63 35.2993 170.64 36.2273C171.649 37.1553 172.891 37.6193 174.365 37.6193C176.494 37.6193 178.009 36.7049 178.91 34.8762H185.092C184.437 37.0598 183.181 38.8612 181.325 40.2805C179.469 41.6725 177.19 42.3685 174.488 42.3685C172.305 42.3685 170.339 41.8908 168.593 40.9355C166.873 39.9529 165.522 38.5746 164.539 36.8005C163.584 35.0264 163.106 32.9793 163.106 30.6593C163.106 28.312 163.584 26.2513 164.539 24.4772C165.495 22.7031 166.832 21.3384 168.552 20.3831C170.271 19.4278 172.25 18.9501 174.488 18.9501C176.644 18.9501 178.569 19.4141 180.261 20.3421C181.98 21.2701 183.304 22.5939 184.232 24.3134C185.187 26.0056 185.665 27.9572 185.665 30.168ZM179.729 28.5304C179.701 27.0565 179.169 25.8828 178.132 25.0094C177.095 24.1087 175.825 23.6584 174.324 23.6584C172.905 23.6584 171.704 24.0951 170.721 24.9685C169.766 25.8146 169.179 27.0019 168.961 28.5304H179.729ZM198.938 42.3685C197.082 42.3685 195.417 42.0409 193.943 41.3859C192.469 40.7035 191.295 39.7892 190.422 38.6428C189.576 37.4965 189.112 36.2273 189.03 34.8353H194.803C194.912 35.7087 195.335 36.432 196.072 37.0052C196.836 37.5784 197.778 37.8649 198.897 37.8649C199.988 37.8649 200.835 37.6466 201.435 37.2099C202.063 36.7732 202.377 36.2136 202.377 35.5313C202.377 34.7944 201.995 34.2485 201.23 33.8936C200.493 33.5115 199.306 33.1021 197.668 32.6654C195.976 32.256 194.584 31.8329 193.492 31.3962C192.428 30.9595 191.5 30.2908 190.708 29.3901C189.944 28.4894 189.562 27.2748 189.562 25.7464C189.562 24.4908 189.917 23.3445 190.627 22.3073C191.363 21.2701 192.401 20.4513 193.738 19.8508C195.103 19.2504 196.699 18.9501 198.528 18.9501C201.23 18.9501 203.387 19.6325 204.997 20.9972C206.607 22.3346 207.494 24.1496 207.658 26.4424H202.172C202.09 25.5416 201.708 24.832 201.026 24.3134C200.371 23.7675 199.483 23.4946 198.364 23.4946C197.327 23.4946 196.522 23.6856 195.949 24.0678C195.403 24.4499 195.13 24.9821 195.13 25.6645C195.13 26.4287 195.512 27.0155 196.276 27.4249C197.041 27.8071 198.228 28.2028 199.838 28.6122C201.476 29.0216 202.827 29.4447 203.891 29.8814C204.956 30.3181 205.87 31.0005 206.635 31.9285C207.426 32.8292 207.835 34.0301 207.863 35.5313C207.863 36.8414 207.494 38.0151 206.757 39.0522C206.048 40.0894 205.011 40.9082 203.646 41.5087C202.308 42.0819 200.739 42.3685 198.938 42.3685ZM215.884 16.6165C214.874 16.6165 214.028 16.3026 213.346 15.6748C212.691 15.0198 212.363 14.2146 212.363 13.2593C212.363 12.304 212.691 11.5125 213.346 10.8847C214.028 10.2296 214.874 9.90212 215.884 9.90212C216.894 9.90212 217.726 10.2296 218.381 10.8847C219.064 11.5125 219.405 12.304 219.405 13.2593C219.405 14.2146 219.064 15.0198 218.381 15.6748C217.726 16.3026 216.894 16.6165 215.884 16.6165ZM218.709 19.3186V42H212.977V19.3186H218.709ZM233.461 42.3685C231.605 42.3685 229.94 42.0409 228.466 41.3859C226.992 40.7035 225.819 39.7892 224.945 38.6428C224.099 37.4965 223.635 36.2273 223.553 34.8353H229.326C229.435 35.7087 229.858 36.432 230.595 37.0052C231.359 37.5784 232.301 37.8649 233.42 37.8649C234.512 37.8649 235.358 37.6466 235.958 37.2099C236.586 36.7732 236.9 36.2136 236.9 35.5313C236.9 34.7944 236.518 34.2485 235.754 33.8936C235.017 33.5115 233.829 33.1021 232.192 32.6654C230.5 32.256 229.108 31.8329 228.016 31.3962C226.951 30.9595 226.023 30.2908 225.232 29.3901C224.468 28.4894 224.085 27.2748 224.085 25.7464C224.085 24.4908 224.44 23.3445 225.15 22.3073C225.887 21.2701 226.924 20.4513 228.261 19.8508C229.626 19.2504 231.223 18.9501 233.052 18.9501C235.754 18.9501 237.91 19.6325 239.52 20.9972C241.131 22.3346 242.018 24.1496 242.181 26.4424H236.695C236.613 25.5416 236.231 24.832 235.549 24.3134C234.894 23.7675 234.007 23.4946 232.888 23.4946C231.851 23.4946 231.045 23.6856 230.472 24.0678C229.926 24.4499 229.653 24.9821 229.653 25.6645C229.653 26.4287 230.036 27.0155 230.8 27.4249C231.564 27.8071 232.751 28.2028 234.362 28.6122C235.999 29.0216 237.35 29.4447 238.415 29.8814C239.479 30.3181 240.394 31.0005 241.158 31.9285C241.949 32.8292 242.359 34.0301 242.386 35.5313C242.386 36.8414 242.018 38.0151 241.281 39.0522C240.571 40.0894 239.534 40.9082 238.169 41.5087C236.832 42.0819 235.262 42.3685 233.461 42.3685Z" fill="black"/>
<circle cx="25.5886" cy="30.7058" r="18.7647" stroke="black" stroke-width="6.82353"/>
<circle cx="39.2353" cy="17.0588" r="10.2353" fill="black"/>
<circle cx="10.2353" cy="17.0588" r="10.2353" fill="black"/>
<circle cx="25.5888" cy="47.7646" r="10.2353" fill="black"/>
</svg>
