<svg width="129" height="129" viewBox="0 0 129 129" fill="none" xmlns="http://www.w3.org/2000/svg">
<path d="M64.4996 9.38387C74.8007 9.38387 84.8341 12.327 93.6631 17.6779C102.225 22.8952 109.047 30.521 113.596 39.4839C113.73 39.8851 113.998 40.2864 114.131 40.6877C116.004 44.4334 117.342 48.4468 118.278 52.4604C119.215 56.3394 119.616 60.4875 119.616 64.4999C119.616 73.3295 117.475 82.0245 113.462 89.9177C108.779 99.0141 101.689 106.506 92.9938 111.724C91.5222 112.661 90.0507 113.463 88.4456 114.131C84.5665 116.005 80.5529 117.477 76.5393 118.279C72.6602 119.216 68.5122 119.617 64.4998 119.617C54.1987 119.617 44.1653 116.674 35.3362 111.323C26.7745 106.106 19.9523 98.4801 15.4031 89.5172C15.2697 89.1159 15.0018 88.7147 14.8684 88.3134C12.9946 84.5667 11.523 80.5533 10.7206 76.5398C9.78367 72.6607 9.38241 68.5126 9.38241 64.5002C9.38241 55.6707 11.5231 46.9756 15.5367 39.0825C20.2194 29.986 27.3093 22.4938 36.0047 17.2764C37.4763 16.3395 38.9478 15.537 40.5529 14.8689C44.4329 12.9951 48.4465 11.5235 52.4601 10.7211C56.3391 9.78511 60.4863 9.38384 64.4996 9.38384M64.4996 4.30005C55.8045 4.30005 46.8404 6.17289 38.5467 10.1865C36.8073 10.989 35.2022 11.9259 33.5972 12.8618C23.8316 18.7483 16.2058 27.042 11.123 36.6743C6.70733 45.2361 4.2998 54.8681 4.2998 64.5001C4.2998 73.1952 6.17265 82.1592 10.1863 90.5867C10.4541 90.988 10.5875 91.5237 10.8553 91.9249C16.0727 101.958 23.6975 109.984 32.6604 115.604C42.1591 121.489 53.2627 124.7 64.4995 124.7C73.1946 124.7 82.1587 122.827 90.4524 118.814C92.1918 118.011 93.7969 117.074 95.402 116.138C105.168 110.252 112.793 101.958 117.876 92.326C122.292 83.7642 124.699 74.1322 124.699 64.5002C124.699 55.8051 122.826 46.8411 118.813 38.4135C118.545 38.0123 118.412 37.4766 118.144 37.0754C112.926 27.042 105.302 19.0159 96.3387 13.3965C86.84 7.51096 75.7364 4.30005 64.4996 4.30005Z" fill="#3661EB" fill-opacity="0.36"/>
<circle cx="64.5002" cy="13.6167" r="2.38889" fill="#3661EB"/>
<circle cx="64.5002" cy="113.233" r="2.38889" fill="#3661EB"/>
<g opacity="0.5">
<circle cx="77.3915" cy="15.314" r="1.19444" transform="rotate(15 77.3915 15.314)" fill="#3661EB"/>
<circle cx="51.6083" cy="111.536" r="1.19444" transform="rotate(15 51.6083 111.536)" fill="#3661EB"/>
<circle cx="89.404" cy="20.2896" r="1.19444" transform="rotate(30 89.404 20.2896)" fill="#3661EB"/>
<circle cx="39.5954" cy="106.56" r="1.19444" transform="rotate(30 39.5954 106.56)" fill="#3661EB"/>
<circle cx="99.7197" cy="28.2051" r="1.19444" transform="rotate(45 99.7197 28.2051)" fill="#3661EB"/>
<circle cx="29.2803" cy="98.6448" r="1.19444" transform="rotate(45 29.2803 98.6448)" fill="#3661EB"/>
<circle cx="107.635" cy="38.5208" r="1.19444" transform="rotate(60 107.635 38.5208)" fill="#3661EB"/>
<circle cx="21.3646" cy="88.3292" r="1.19444" transform="rotate(60 21.3646 88.3292)" fill="#3661EB"/>
<circle cx="112.611" cy="50.5337" r="1.19444" transform="rotate(75 112.611 50.5337)" fill="#3661EB"/>
<circle cx="16.3888" cy="76.3164" r="1.19444" transform="rotate(75 16.3888 76.3164)" fill="#3661EB"/>
</g>
<g opacity="0.5">
<circle cx="112.611" cy="76.3163" r="1.19444" transform="rotate(105 112.611 76.3163)" fill="#3661EB"/>
<circle cx="16.3887" cy="50.5336" r="1.19444" transform="rotate(105 16.3887 50.5336)" fill="#3661EB"/>
<circle cx="107.635" cy="88.329" r="1.19444" transform="rotate(120 107.635 88.329)" fill="#3661EB"/>
<circle cx="21.3645" cy="38.5207" r="1.19444" transform="rotate(120 21.3645 38.5207)" fill="#3661EB"/>
<circle cx="99.72" cy="98.6448" r="1.19444" transform="rotate(135 99.72 98.6448)" fill="#3661EB"/>
<circle cx="29.2805" cy="28.2051" r="1.19444" transform="rotate(135 29.2805 28.2051)" fill="#3661EB"/>
<circle cx="89.4045" cy="106.56" r="1.19444" transform="rotate(150 89.4045 106.56)" fill="#3661EB"/>
<circle cx="39.5959" cy="20.2896" r="1.19444" transform="rotate(150 39.5959 20.2896)" fill="#3661EB"/>
<circle cx="77.3916" cy="111.536" r="1.19444" transform="rotate(165 77.3916 111.536)" fill="#3661EB"/>
<circle cx="51.6084" cy="15.3138" r="1.19444" transform="rotate(165 51.6084 15.3138)" fill="#3661EB"/>
</g>
<circle cx="114.308" cy="63.425" r="2.38889" transform="rotate(90 114.308 63.425)" fill="#3661EB"/>
<circle cx="14.6912" cy="63.425" r="2.38889" transform="rotate(90 14.6912 63.425)" fill="#3661EB"/>
<path d="M57.9968 47.6561V69.8945H55.3038V50.4794H55.1735L49.7442 54.0844V51.3481L55.3038 47.6561H57.9968ZM71.646 70.1986C70.01 70.1986 68.6165 69.7534 67.4655 68.863C66.3144 67.9653 65.4349 66.6659 64.8268 64.9647C64.2187 63.2563 63.9147 61.1932 63.9147 58.7753C63.9147 56.372 64.2187 54.3197 64.8268 52.6185C65.4421 50.9101 66.3253 49.6071 67.4763 48.7094C68.6346 47.8045 70.0245 47.3521 71.646 47.3521C73.2676 47.3521 74.6538 47.8045 75.8048 48.7094C76.9631 49.6071 77.8463 50.9101 78.4543 52.6185C79.0697 54.3197 79.3773 56.372 79.3773 58.7753C79.3773 61.1932 79.0733 63.2563 78.4652 64.9647C77.8571 66.6659 76.9776 67.9653 75.8266 68.863C74.6756 69.7534 73.282 70.1986 71.646 70.1986ZM71.646 67.8097C73.2676 67.8097 74.5272 67.0279 75.4248 65.4642C76.3224 63.9006 76.7713 61.671 76.7713 58.7753C76.7713 56.8497 76.565 55.2101 76.1523 53.8564C75.7469 52.5027 75.1606 51.4711 74.3932 50.7617C73.6331 50.0523 72.7174 49.6976 71.646 49.6976C70.0389 49.6976 68.783 50.4902 67.8781 52.0756C66.9732 53.6537 66.5208 55.8869 66.5208 58.7753C66.5208 60.7009 66.7234 62.337 67.1288 63.6834C67.5342 65.0299 68.117 66.0542 68.8771 66.7564C69.6444 67.4586 70.5674 67.8097 71.646 67.8097Z" fill="#3661EB"/>
<path d="M44.4166 84.2056V77.951H46.5299C47.0185 77.951 47.4196 78.0345 47.7332 78.2014C48.0467 78.3664 48.2788 78.5934 48.4295 78.8825C48.5801 79.1716 48.6555 79.5004 48.6555 79.8689C48.6555 80.2374 48.5801 80.5642 48.4295 80.8492C48.2788 81.1343 48.0477 81.3582 47.7362 81.5211C47.4247 81.682 47.0267 81.7624 46.5421 81.7624H44.8319V81.0783H46.5177C46.8516 81.0783 47.1203 81.0294 47.3239 80.9317C47.5296 80.834 47.6782 80.6955 47.7698 80.5164C47.8635 80.3352 47.9103 80.1193 47.9103 79.8689C47.9103 79.6185 47.8635 79.3996 47.7698 79.2123C47.6762 79.025 47.5265 78.8804 47.3209 78.7786C47.1153 78.6748 46.8435 78.6229 46.5055 78.6229H45.1739V84.2056H44.4166ZM47.3606 81.3959L48.8998 84.2056H48.0203L46.5055 81.3959H47.3606ZM51.7362 84.3033C51.2842 84.3033 50.8943 84.2035 50.5665 84.004C50.2408 83.8024 49.9893 83.5215 49.8122 83.1611C49.6371 82.7987 49.5495 82.3773 49.5495 81.8968C49.5495 81.4163 49.6371 80.9928 49.8122 80.6263C49.9893 80.2578 50.2357 79.9707 50.5512 79.7651C50.8689 79.5574 51.2394 79.4536 51.6629 79.4536C51.9072 79.4536 52.1485 79.4943 52.3867 79.5757C52.6249 79.6572 52.8417 79.7895 53.0372 79.9728C53.2326 80.154 53.3884 80.3942 53.5044 80.6935C53.6205 80.9928 53.6785 81.3613 53.6785 81.799V82.1044H50.0626V81.4814H52.9456C52.9456 81.2167 52.8926 80.9806 52.7868 80.7729C52.6829 80.5652 52.5343 80.4013 52.3409 80.2812C52.1495 80.1611 51.9235 80.101 51.6629 80.101C51.3758 80.101 51.1274 80.1723 50.9177 80.3148C50.71 80.4553 50.5502 80.6385 50.4382 80.8645C50.3263 81.0905 50.2703 81.3328 50.2703 81.5914V82.0067C50.2703 82.361 50.3314 82.6613 50.4535 82.9076C50.5777 83.1519 50.7497 83.3382 50.9696 83.4665C51.1895 83.5927 51.445 83.6559 51.7362 83.6559C51.9255 83.6559 52.0966 83.6294 52.2493 83.5764C52.404 83.5215 52.5373 83.44 52.6493 83.3321C52.7613 83.2222 52.8478 83.0858 52.9089 82.9229L53.6052 83.1184C53.5319 83.3545 53.4087 83.5622 53.2357 83.7414C53.0626 83.9185 52.8488 84.0569 52.5943 84.1567C52.3399 84.2544 52.0538 84.3033 51.7362 84.3033ZM54.7749 84.2056V79.5147H55.4712V80.2476H55.5323C55.63 79.9972 55.7878 79.8027 56.0056 79.6643C56.2235 79.5238 56.4851 79.4536 56.7905 79.4536C57.1 79.4536 57.3575 79.5238 57.5632 79.6643C57.7708 79.8027 57.9327 79.9972 58.0488 80.2476H58.0976C58.2177 80.0053 58.3979 79.8129 58.6382 79.6704C58.8784 79.5259 59.1665 79.4536 59.5024 79.4536C59.9219 79.4536 60.2649 79.5849 60.5316 79.8475C60.7984 80.1081 60.9317 80.5143 60.9317 81.0661V84.2056H60.211V81.0661C60.211 80.72 60.1163 80.4726 59.927 80.324C59.7376 80.1753 59.5147 80.101 59.2581 80.101C58.9283 80.101 58.6728 80.2008 58.4916 80.4003C58.3104 80.5978 58.2198 80.8482 58.2198 81.1516V84.2056H57.4868V80.9928C57.4868 80.7261 57.4003 80.5113 57.2272 80.3484C57.0542 80.1835 56.8312 80.101 56.5584 80.101C56.3711 80.101 56.196 80.1509 56.0331 80.2507C55.8723 80.3504 55.742 80.4889 55.6422 80.666C55.5445 80.8411 55.4956 81.0437 55.4956 81.2737V84.2056H54.7749ZM63.6299 84.3155C63.3326 84.3155 63.0629 84.2595 62.8206 84.1475C62.5783 84.0335 62.3859 83.8696 62.2434 83.6559C62.1009 83.44 62.0296 83.1794 62.0296 82.874C62.0296 82.6053 62.0826 82.3874 62.1884 82.2205C62.2943 82.0515 62.4358 81.9192 62.6129 81.8235C62.7901 81.7278 62.9855 81.6565 63.1993 81.6097C63.4151 81.5608 63.6319 81.5221 63.8498 81.4936C64.1348 81.457 64.3659 81.4295 64.543 81.4112C64.7222 81.3908 64.8525 81.3572 64.934 81.3104C65.0174 81.2636 65.0592 81.1821 65.0592 81.0661V81.0416C65.0592 80.7403 64.9767 80.5062 64.8118 80.3392C64.6489 80.1723 64.4015 80.0888 64.0697 80.0888C63.7256 80.0888 63.4558 80.1641 63.2604 80.3148C63.0649 80.4655 62.9275 80.6263 62.8481 80.7973L62.164 80.553C62.2862 80.268 62.449 80.046 62.6526 79.8872C62.8583 79.7264 63.0822 79.6144 63.3245 79.5513C63.5688 79.4862 63.8091 79.4536 64.0452 79.4536C64.1959 79.4536 64.369 79.4719 64.5644 79.5085C64.7619 79.5432 64.9523 79.6154 65.1355 79.7254C65.3208 79.8353 65.4745 80.0013 65.5967 80.2232C65.7188 80.4451 65.7799 80.7424 65.7799 81.1149V84.2056H65.0592V83.5703H65.0225C64.9737 83.6721 64.8922 83.7811 64.7782 83.8971C64.6642 84.0132 64.5125 84.1119 64.3232 84.1934C64.1338 84.2748 63.9027 84.3155 63.6299 84.3155ZM63.7398 83.6681C64.0249 83.6681 64.2651 83.6121 64.4606 83.5001C64.6581 83.3881 64.8067 83.2436 64.9065 83.0664C65.0083 82.8893 65.0592 82.703 65.0592 82.5076V81.8479C65.0286 81.8845 64.9614 81.9181 64.8576 81.9487C64.7558 81.9772 64.6377 82.0026 64.5033 82.025C64.371 82.0454 64.2417 82.0637 64.1155 82.08C63.9913 82.0942 63.8905 82.1065 63.8131 82.1166C63.6258 82.1411 63.4507 82.1808 63.2879 82.2358C63.127 82.2887 62.9967 82.3691 62.8969 82.477C62.7992 82.5829 62.7504 82.7274 62.7504 82.9107C62.7504 83.1611 62.843 83.3505 63.0283 83.4787C63.2156 83.605 63.4528 83.6681 63.7398 83.6681ZM67.0954 84.2056V79.5147H67.8161V84.2056H67.0954ZM67.4619 78.7328C67.3214 78.7328 67.2003 78.685 67.0985 78.5893C66.9987 78.4936 66.9488 78.3786 66.9488 78.2442C66.9488 78.1098 66.9987 77.9948 67.0985 77.8991C67.2003 77.8034 67.3214 77.7556 67.4619 77.7556C67.6024 77.7556 67.7225 77.8034 67.8222 77.8991C67.924 77.9948 67.9749 78.1098 67.9749 78.2442C67.9749 78.3786 67.924 78.4936 67.8222 78.5893C67.7225 78.685 67.6024 78.7328 67.4619 78.7328ZM69.857 81.3837V84.2056H69.1362V79.5147H69.8325V80.2476H69.8936C70.0036 80.0094 70.1705 79.818 70.3945 79.6735C70.6184 79.5269 70.9075 79.4536 71.2618 79.4536C71.5794 79.4536 71.8573 79.5187 72.0955 79.649C72.3337 79.7773 72.519 79.9728 72.6514 80.2354C72.7837 80.496 72.8499 80.8258 72.8499 81.2249V84.2056H72.1291V81.2737C72.1291 80.9052 72.0334 80.6182 71.842 80.4125C71.6507 80.2049 71.388 80.101 71.0541 80.101C70.8241 80.101 70.6184 80.1509 70.4372 80.2507C70.2581 80.3504 70.1166 80.496 70.0127 80.6874C69.9089 80.8788 69.857 81.1109 69.857 81.3837ZM74.1669 84.2056V79.5147H74.8876V84.2056H74.1669ZM74.5334 78.7328C74.3929 78.7328 74.2717 78.685 74.1699 78.5893C74.0702 78.4936 74.0203 78.3786 74.0203 78.2442C74.0203 78.1098 74.0702 77.9948 74.1699 77.8991C74.2717 77.8034 74.3929 77.7556 74.5334 77.7556C74.6739 77.7556 74.794 77.8034 74.8937 77.8991C74.9955 77.9948 75.0464 78.1098 75.0464 78.2442C75.0464 78.3786 74.9955 78.4936 74.8937 78.5893C74.794 78.685 74.6739 78.7328 74.5334 78.7328ZM76.9284 81.3837V84.2056H76.2077V79.5147H76.904V80.2476H76.9651C77.075 80.0094 77.242 79.818 77.4659 79.6735C77.6899 79.5269 77.979 79.4536 78.3333 79.4536C78.6509 79.4536 78.9288 79.5187 79.167 79.649C79.4052 79.7773 79.5905 79.9728 79.7228 80.2354C79.8552 80.496 79.9213 80.8258 79.9213 81.2249V84.2056H79.2006V81.2737C79.2006 80.9052 79.1049 80.6182 78.9135 80.4125C78.7222 80.2049 78.4595 80.101 78.1256 80.101C77.8955 80.101 77.6899 80.1509 77.5087 80.2507C77.3295 80.3504 77.188 80.496 77.0842 80.6874C76.9804 80.8788 76.9284 81.1109 76.9284 81.3837ZM83.1318 86.0624C82.7837 86.0624 82.4844 86.0176 82.234 85.928C81.9835 85.8405 81.7749 85.7244 81.6079 85.5799C81.443 85.4373 81.3117 85.2846 81.2139 85.1218L81.7881 84.7186C81.8532 84.8041 81.9357 84.9019 82.0355 85.0118C82.1352 85.1238 82.2716 85.2205 82.4447 85.3019C82.6198 85.3854 82.8488 85.4272 83.1318 85.4272C83.5105 85.4272 83.8231 85.3355 84.0694 85.1523C84.3158 84.9691 84.4389 84.682 84.4389 84.2911V83.3382H84.3779C84.3249 83.4237 84.2496 83.5296 84.1519 83.6559C84.0562 83.78 83.9177 83.891 83.7365 83.9887C83.5574 84.0844 83.3151 84.1323 83.0097 84.1323C82.631 84.1323 82.291 84.0427 81.9897 83.8635C81.6904 83.6844 81.4532 83.4237 81.2781 83.0817C81.105 82.7397 81.0185 82.3243 81.0185 81.8357C81.0185 81.3552 81.103 80.9368 81.272 80.5805C81.441 80.2222 81.6761 79.9453 81.9774 79.7498C82.2788 79.5523 82.6269 79.4536 83.0219 79.4536C83.3273 79.4536 83.5696 79.5045 83.7487 79.6063C83.9299 79.706 84.0684 79.8201 84.1641 79.9483C84.2618 80.0746 84.3371 80.1784 84.3901 80.2598H84.4634V79.5147H85.1597V84.3399C85.1597 84.7431 85.0681 85.0709 84.8848 85.3233C84.7036 85.5778 84.4593 85.7641 84.1519 85.8822C83.8465 86.0023 83.5065 86.0624 83.1318 86.0624ZM83.1074 83.4848C83.3965 83.4848 83.6408 83.4187 83.8404 83.2863C84.0399 83.154 84.1916 82.9636 84.2954 82.7152C84.3992 82.4668 84.4512 82.1696 84.4512 81.8235C84.4512 81.4855 84.4003 81.1872 84.2985 80.9286C84.1967 80.6701 84.046 80.4675 83.8465 80.3209C83.6469 80.1743 83.4006 80.101 83.1074 80.101C82.802 80.101 82.5475 80.1784 82.3439 80.3331C82.1424 80.4879 81.9907 80.6955 81.8889 80.9561C81.7891 81.2167 81.7392 81.5058 81.7392 81.8235C81.7392 82.1492 81.7901 82.4373 81.8919 82.6877C81.9958 82.9361 82.1485 83.1316 82.35 83.2741C82.5536 83.4146 82.8061 83.4848 83.1074 83.4848Z" fill="#3661EB"/>
<path d="M86.0798 66.7273C86.0542 66.5114 85.9506 66.3438 85.7687 66.2244C85.5869 66.1051 85.3639 66.0455 85.0997 66.0455C84.9065 66.0455 84.7375 66.0767 84.5926 66.1392C84.4491 66.2017 84.3369 66.2876 84.2559 66.397C84.1764 66.5064 84.1366 66.6307 84.1366 66.7699C84.1366 66.8864 84.1643 66.9865 84.2197 67.0703C84.2765 67.1527 84.349 67.2216 84.4371 67.277C84.5251 67.331 84.6175 67.3757 84.714 67.4112C84.8106 67.4453 84.8994 67.473 84.9804 67.4943L85.4236 67.6136C85.5372 67.6435 85.6636 67.6847 85.8028 67.7372C85.9434 67.7898 86.0777 67.8615 86.2055 67.9524C86.3348 68.0419 86.4413 68.157 86.5251 68.2976C86.6089 68.4382 86.6508 68.6108 86.6508 68.8153C86.6508 69.0511 86.589 69.2642 86.4655 69.4545C86.3433 69.6449 86.1643 69.7962 85.9285 69.9084C85.6942 70.0206 85.4094 70.0767 85.0741 70.0767C84.7616 70.0767 84.491 70.0263 84.2623 69.9254C84.0351 69.8246 83.8561 69.6839 83.7254 69.5036C83.5961 69.3232 83.523 69.1136 83.5059 68.875H84.0514C84.0656 69.0398 84.121 69.1761 84.2176 69.2841C84.3156 69.3906 84.4392 69.4702 84.5883 69.5227C84.7389 69.5739 84.9008 69.5994 85.0741 69.5994C85.2758 69.5994 85.4569 69.5668 85.6175 69.5014C85.778 69.4347 85.9051 69.3423 85.9988 69.2244C86.0926 69.1051 86.1395 68.9659 86.1395 68.8068C86.1395 68.6619 86.099 68.544 86.018 68.4531C85.9371 68.3622 85.8305 68.2884 85.6984 68.2315C85.5663 68.1747 85.4236 68.125 85.2702 68.0824L84.7332 67.929C84.3923 67.831 84.1224 67.6911 83.9236 67.5092C83.7247 67.3274 83.6253 67.0895 83.6253 66.7955C83.6253 66.5511 83.6913 66.3381 83.8234 66.1562C83.9569 65.973 84.1359 65.831 84.3604 65.7301C84.5862 65.6278 84.8383 65.5767 85.1167 65.5767C85.398 65.5767 85.648 65.6271 85.8667 65.728C86.0855 65.8274 86.2588 65.9638 86.3866 66.1371C86.5159 66.3104 86.5841 66.5071 86.5912 66.7273H86.0798ZM88.8236 70.0682C88.5083 70.0682 88.2362 69.9986 88.0075 69.8594C87.7803 69.7188 87.6048 69.5227 87.4813 69.2713C87.3591 69.0185 87.298 68.7244 87.298 68.3892C87.298 68.054 87.3591 67.7585 87.4813 67.5028C87.6048 67.2457 87.7767 67.0455 87.9969 66.902C88.2185 66.7571 88.477 66.6847 88.7725 66.6847C88.9429 66.6847 89.1112 66.7131 89.2774 66.7699C89.4436 66.8267 89.5949 66.919 89.7313 67.0469C89.8676 67.1733 89.9763 67.3409 90.0573 67.5497C90.1382 67.7585 90.1787 68.0156 90.1787 68.321V68.5341H87.656V68.0994H89.6673C89.6673 67.9148 89.6304 67.75 89.5566 67.6051C89.4841 67.4602 89.3804 67.3459 89.2455 67.2621C89.1119 67.1783 88.9543 67.1364 88.7725 67.1364C88.5722 67.1364 88.3989 67.1861 88.2526 67.2855C88.1077 67.3835 87.9962 67.5114 87.9181 67.669C87.8399 67.8267 87.8009 67.9957 87.8009 68.1761V68.4659C87.8009 68.7131 87.8435 68.9226 87.9287 69.0945C88.0154 69.2649 88.1354 69.3949 88.2888 69.4844C88.4422 69.5724 88.6205 69.6165 88.8236 69.6165C88.9557 69.6165 89.075 69.598 89.1816 69.5611C89.2895 69.5227 89.3825 69.4659 89.4607 69.3906C89.5388 69.3139 89.5992 69.2187 89.6418 69.1051L90.1276 69.2415C90.0764 69.4062 89.9905 69.5511 89.8698 69.6761C89.749 69.7997 89.5999 69.8963 89.4223 69.9659C89.2448 70.0341 89.0452 70.0682 88.8236 70.0682ZM92.2732 70.0682C91.9664 70.0682 91.7021 69.9957 91.4806 69.8509C91.259 69.706 91.0885 69.5064 90.9692 69.2521C90.8499 68.9979 90.7902 68.7074 90.7902 68.3807C90.7902 68.0483 90.8513 67.755 90.9735 67.5007C91.097 67.245 91.2689 67.0455 91.4891 66.902C91.7107 66.7571 91.9692 66.6847 92.2646 66.6847C92.4948 66.6847 92.7021 66.7273 92.8868 66.8125C93.0715 66.8977 93.2227 67.017 93.3406 67.1705C93.4585 67.3239 93.5317 67.5028 93.5601 67.7074H93.0573C93.0189 67.5582 92.9337 67.4261 92.8016 67.3111C92.6709 67.1946 92.4948 67.1364 92.2732 67.1364C92.0771 67.1364 91.9053 67.1875 91.7575 67.2898C91.6112 67.3906 91.4969 67.5334 91.4145 67.718C91.3335 67.9013 91.2931 68.1165 91.2931 68.3636C91.2931 68.6165 91.3328 68.8366 91.4124 69.0241C91.4933 69.2116 91.607 69.3572 91.7533 69.4609C91.901 69.5646 92.0743 69.6165 92.2732 69.6165C92.4039 69.6165 92.5225 69.5938 92.629 69.5483C92.7355 69.5028 92.8257 69.4375 92.8996 69.3523C92.9735 69.267 93.026 69.1648 93.0573 69.0455H93.5601C93.5317 69.2386 93.4614 69.4126 93.3492 69.5675C93.2384 69.7209 93.0914 69.843 92.9081 69.9339C92.7263 70.0234 92.5146 70.0682 92.2732 70.0682Z" fill="#3661EB"/>
<path fill-rule="evenodd" clip-rule="evenodd" d="M116.379 102.825C124.577 91.7283 129 78.2959 129 64.5H126.611C126.611 98.8031 98.8031 126.611 64.5 126.611C30.197 126.611 2.38891 98.8031 2.38891 64.5C2.38891 30.197 30.197 2.38891 64.5 2.38891C72.5895 2.38891 80.3178 3.9354 87.4054 6.74887L88.28 4.54367C75.456 -0.542611 61.339 -1.38309 48.0021 2.14565C34.6651 5.6744 22.811 13.3864 14.1804 24.1493C5.54979 34.9121 0.597486 48.1586 0.0507015 61.9436C-0.496083 75.7287 3.39146 89.3258 11.1425 100.738C18.8935 112.151 30.0995 120.778 43.1151 125.352C56.1306 129.926 70.2698 130.206 83.4564 126.152C96.643 122.097 108.182 113.921 116.379 102.825Z" fill="#3661EB"/>
<circle cx="87.5" cy="5.5" r="2.5" fill="#3661EB"/>
</svg>
